<?xml version="1.0" encoding="UTF-8"?>
<svg width="142px" height="47px" viewBox="0 0 142 47" version="1.1" xmlns="http://www.w3.org/2000/svg" xmlns:xlink="http://www.w3.org/1999/xlink">
    <!-- Generator: Sketch 59.1 (86144) - https://sketch.com -->
    <title>download-on-the-app-store-badge-us-uk-rgb-blk-092917</title>
    <desc>Created with Sketch.</desc>
    <g id="Page-1" stroke="none" stroke-width="1" fill="none" fill-rule="evenodd">
        <g id="download-on-the-app-store-badge-us-uk-rgb-blk-092917" fill-rule="nonzero">
            <path d="M9.134,46.19 C8.768,46.19 8.411,46.185 8.049,46.177 C7.29752057,46.1671163 6.54780437,46.1016039 5.806,45.981 C5.11436218,45.8620254 4.44432903,45.6405909 3.818,45.324 C3.19719305,45.0098958 2.63095905,44.5979665 2.141,44.104 C1.64432871,43.6158233 1.23086822,43.0496797 0.917,42.428 C0.59938703,41.8025313 0.379501494,41.1320827 0.265,40.44 C0.141481403,39.6961431 0.0746225543,38.943981 0.065,38.19 C0.058,37.937 0.048,37.094 0.048,37.094 L0.048,9.374 C0.048,9.374 0.058,8.544 0.065,8.3 C0.075,7.547 0.141,6.796 0.264,6.053 C0.378535858,5.35901229 0.598404756,4.68659116 0.916,4.059 C1.22872983,3.43726959 1.64005075,2.87026809 2.134,2.38 C2.62738424,1.88550671 3.19528774,1.47147368 3.817,1.153 C4.44194119,0.837514875 5.11074136,0.617727725 5.801,0.501 C6.54503173,0.37926666 7.29713426,0.313415905 8.051,0.304 L9.134,0.289 L132.457,0.289 L133.552,0.304 C134.3,0.314 135.045,0.378 135.782,0.499 C136.48,0.618 137.155,0.839 137.788,1.157 C139.033414,1.79881053 140.046767,2.81426087 140.686,4.061 C140.998,4.684 141.215,5.351 141.328,6.039 C141.452,6.789 141.522,7.545 141.536,8.304 C141.54,8.644 141.54,9.009 141.54,9.372 C141.55,9.822 141.55,10.251 141.55,10.682 L141.55,35.797 C141.55,36.233 141.55,36.658 141.54,37.087 C141.54,37.477 141.54,37.835 141.535,38.203 C141.521021,38.9483421 141.452504,39.6916613 141.33,40.427 C141.218025,41.1242726 140.999469,41.8001746 140.682,42.431 C140.365642,43.0459844 139.954252,43.6072152 139.463,44.094 C138.973,44.59 138.406,45.004 137.784,45.321 C137.154,45.64 136.479,45.862 135.782,45.981 C135.040251,46.1019123 134.290487,46.1670946 133.539,46.176 C133.188,46.184 132.819,46.189 132.463,46.189 L131.162,46.191 L9.134,46.189 L9.134,46.19 Z" id="Path" fill="#000000"></path>
            <g id="Group" transform="translate(10.000000, 9.000000)" fill="#FFFFFF">
                <path d="M18.723,14.6 C18.7494974,12.5644001 19.816771,10.6842171 21.551,9.618 C20.4516914,8.04821021 18.6765033,7.08871921 16.761,7.029 C14.746,6.818 12.793,8.235 11.766,8.235 C10.719,8.235 9.138,7.05 7.436,7.085 C5.19567092,7.15724409 3.15770975,8.40021817 2.068,10.359 C-0.252,14.377 1.478,20.282 3.701,23.529 C4.814,25.12 6.114,26.897 7.815,26.834 C9.479,26.764 10.101,25.772 12.11,25.772 C14.1,25.772 14.684,26.834 16.419,26.794 C18.205,26.764 19.33,25.196 20.404,23.591 C21.2031395,22.457768 21.8180657,21.205303 22.226,19.88 C20.1043277,18.9827274 18.7249391,16.9036032 18.723,14.6 L18.723,14.6 Z M15.445,4.893 C16.4187414,3.7238197 16.898361,2.22110747 16.782,0.704 C15.2941697,0.860414622 13.9198905,1.57165497 12.933,2.696 C11.9585118,3.80534673 11.4649439,5.25655143 11.561,6.73 C13.0687924,6.74533305 14.5003216,6.06826836 15.445,4.893 L15.445,4.893 Z" id="Shape"></path>
                <path d="M39.763,22.808 L34.083,22.808 L32.719,26.835 L30.313,26.835 L35.693,11.934 L38.193,11.934 L43.573,26.835 L41.126,26.835 L39.763,22.808 L39.763,22.808 Z M34.671,20.949 L39.173,20.949 L36.953,14.412 L36.892,14.412 L34.67,20.95 L34.671,20.949 Z M55.192,21.404 C55.192,24.78 53.385,26.949 50.658,26.949 C49.2484004,27.0231805 47.9204038,26.2851887 47.239,25.049 L47.188,25.049 L47.188,30.429 L44.958,30.429 L44.958,15.971 L47.116,15.971 L47.116,17.778 L47.157,17.778 C47.8686706,16.5495763 49.1980664,15.8118769 50.617,15.858 C53.374,15.858 55.192,18.037 55.192,21.404 L55.192,21.404 Z M52.899,21.404 C52.899,19.204 51.763,17.758 50.029,17.758 C48.324,17.758 47.179,19.235 47.179,21.404 C47.179,23.593 48.324,25.059 50.029,25.059 C51.763,25.059 52.899,23.623 52.899,21.404 L52.899,21.404 Z M67.15,21.404 C67.15,24.78 65.342,26.949 62.615,26.949 C61.2057526,27.0227885 59.8782436,26.284852 59.197,25.049 L59.145,25.049 L59.145,30.429 L56.915,30.429 L56.915,15.971 L59.074,15.971 L59.074,17.778 L59.115,17.778 C59.8266706,16.5495763 61.1560664,15.8118769 62.575,15.858 C65.332,15.858 67.149,18.037 67.149,21.404 L67.15,21.404 Z M64.857,21.404 C64.857,19.204 63.721,17.758 61.987,17.758 C60.282,17.758 59.137,19.235 59.137,21.404 C59.137,23.593 60.282,25.059 61.987,25.059 C63.721,25.059 64.857,23.623 64.857,21.404 L64.857,21.404 Z M75.053,22.683 C75.218,24.161 76.653,25.131 78.615,25.131 C80.495,25.131 81.847,24.161 81.847,22.829 C81.847,21.672 81.031,20.979 79.1,20.505 L77.169,20.04 C74.433,19.379 73.162,18.099 73.162,16.022 C73.162,13.452 75.403,11.685 78.585,11.685 C81.733,11.685 83.892,13.451 83.965,16.022 L81.713,16.022 C81.579,14.535 80.349,13.638 78.553,13.638 C76.756,13.638 75.527,14.546 75.527,15.868 C75.527,16.921 76.312,17.541 78.233,18.016 L79.875,18.419 C82.932,19.142 84.203,20.37 84.203,22.549 C84.203,25.338 81.982,27.084 78.45,27.084 C75.145,27.084 72.914,25.379 72.77,22.684 L75.053,22.684 L75.053,22.683 Z M89.015,13.4 L89.015,15.97 L91.081,15.97 L91.081,17.737 L89.015,17.737 L89.015,23.727 C89.015,24.657 89.429,25.09 90.337,25.09 C90.583,25.086 90.827,25.069 91.071,25.039 L91.071,26.794 C90.663,26.871 90.248,26.905 89.832,26.897 C87.632,26.897 86.775,26.071 86.775,23.964 L86.775,17.737 L85.195,17.737 L85.195,15.97 L86.775,15.97 L86.775,13.4 L89.015,13.4 L89.015,13.4 Z M92.278,21.404 C92.278,17.985 94.291,15.837 97.431,15.837 C100.581,15.837 102.585,17.985 102.585,21.404 C102.585,24.831 100.591,26.97 97.431,26.97 C94.271,26.97 92.278,24.831 92.278,21.404 Z M100.312,21.404 C100.312,19.059 99.238,17.674 97.431,17.674 C95.624,17.674 94.551,19.069 94.551,21.404 C94.551,23.758 95.624,25.131 97.431,25.131 C99.238,25.131 100.312,23.758 100.312,21.404 Z M104.423,15.97 L106.55,15.97 L106.55,17.82 L106.602,17.82 C106.89845,16.6295831 107.989118,15.8102261 109.215,15.857 C109.472,15.857 109.728,15.884 109.979,15.94 L109.979,18.026 C109.654513,17.9271254 109.316065,17.8818639 108.977,17.892 C108.321253,17.865275 107.686597,18.1265742 107.239757,18.6072538 C106.792917,19.0879335 106.578561,19.7399436 106.653,20.392 L106.653,26.835 L104.423,26.835 L104.423,15.971 L104.423,15.97 Z M120.261,23.644 C119.961,25.617 118.041,26.97 115.583,26.97 C112.423,26.97 110.461,24.852 110.461,21.455 C110.461,18.047 112.433,15.837 115.489,15.837 C118.495,15.837 120.385,17.902 120.385,21.197 L120.385,21.96 L112.712,21.96 L112.712,22.095 C112.640585,22.9038113 112.920013,23.7043354 113.479234,24.2930188 C114.038455,24.8817023 114.82359,25.2018294 115.635,25.172 C116.717184,25.2734288 117.737497,24.6520506 118.144,23.644 L120.261,23.644 L120.261,23.644 Z M112.721988,20.402 L118.154,20.402 C118.194567,19.6750983 117.930034,18.9642299 117.42414,18.4406816 C116.918245,17.9171332 116.216865,17.6283807 115.489,17.644 C114.755325,17.6394613 114.050256,17.928288 113.530615,18.4462387 C113.010974,18.9641894 112.719852,19.6683141 112.721988,20.402 L112.721988,20.402 Z" id="Shape"></path>
            </g>
            <g id="Group" transform="translate(41.000000, 9.000000)" fill="#FFFFFF">
                <path d="M3.391,0.717 C4.33787364,0.648941899 5.26536316,1.00909419 5.91817519,1.69832423 C6.57098723,2.38755427 6.88030934,3.33321081 6.761,4.275 C6.761,6.563 5.524,7.877 3.391,7.877 L0.805,7.877 L0.805,0.717 L3.391,0.717 L3.391,0.717 Z M1.917,6.865 L3.267,6.865 C3.94366641,6.90566513 4.6026269,6.63921849 5.06085888,6.13966415 C5.51909086,5.64010981 5.7277932,4.96064968 5.629,4.29 C5.72054251,3.62217812 5.50880289,2.94839433 5.0517093,2.45298384 C4.59461572,1.95757335 3.94001712,1.69239616 3.267,1.73 L1.917,1.73 L1.917,6.865 Z M8.017,5.173 C7.92281099,4.20364333 8.38681589,3.264806 9.21409741,2.75087098 C10.0413789,2.23693595 11.0886211,2.23693595 11.9159026,2.75087098 C12.7431841,3.264806 13.207189,4.20364333 13.113,5.173 C13.207189,6.14235667 12.7431841,7.081194 11.9159026,7.59512902 C11.0886211,8.10906405 10.0413789,8.10906405 9.21409741,7.59512902 C8.38681589,7.081194 7.92281099,6.14235667 8.017,5.173 L8.017,5.173 Z M12.017,5.173 C12.017,4.002 11.49,3.317 10.567,3.317 C9.64,3.317 9.118,4.002 9.118,5.173 C9.118,6.353 9.64,7.033 10.567,7.033 C11.49,7.033 12.017,6.349 12.017,5.173 L12.017,5.173 Z M19.888,7.877 L18.782,7.877 L17.665,3.897 L17.581,3.897 L16.468,7.877 L15.373,7.877 L13.883,2.474 L14.965,2.474 L15.933,6.597 L16.013,6.597 L17.123,2.474 L18.147,2.474 L19.257,6.597 L19.342,6.597 L20.305,2.474 L21.372,2.474 L19.888,7.877 Z M22.624,2.474 L23.651,2.474 L23.651,3.332 L23.731,3.332 C24.0080608,2.70014494 24.6553072,2.31348346 25.343,2.369 C25.8756269,2.32885881 26.3975916,2.53318631 26.7614189,2.92425202 C27.1252463,3.31531774 27.2914238,3.85065124 27.213,4.379 L27.213,7.877 L26.147,7.877 L26.147,4.647 C26.147,3.779 25.77,3.347 24.981,3.347 C24.6197175,3.33038324 24.2691854,3.47232513 24.0212534,3.73563276 C23.7733214,3.99894039 23.6527016,4.35736905 23.691,4.717 L23.691,7.877 L22.624,7.877 L22.624,2.474 L22.624,2.474 Z M28.913,0.364 L29.979,0.364 L29.979,7.877 L28.913,7.877 L28.913,0.364 Z M31.461,5.173 C31.3689085,4.20470297 31.8335131,3.26786365 32.6600771,2.75515336 C33.4866412,2.24244308 34.5323588,2.24244308 35.3589229,2.75515336 C36.1854869,3.26786365 36.6500915,4.20470297 36.558,5.173 C36.6500915,6.14129703 36.1854869,7.07813635 35.3589229,7.59084664 C34.5323588,8.10355692 33.4866412,8.10355692 32.6600771,7.59084664 C31.8335131,7.07813635 31.3689085,6.14129703 31.461,5.173 L31.461,5.173 Z M35.461,5.173 C35.461,4.002 34.935,3.317 34.011,3.317 C33.084,3.317 32.563,4.002 32.563,5.173 C32.563,6.353 33.084,7.033 34.011,7.033 C34.935,7.033 35.461,6.349 35.461,5.173 L35.461,5.173 Z M37.681,6.35 C37.681,5.377 38.405,4.816 39.691,4.736 L41.155,4.652 L41.155,4.185 C41.155,3.615 40.777,3.292 40.048,3.292 C39.453,3.292 39.04,3.511 38.922,3.892 L37.89,3.892 C37.999,2.965 38.872,2.37 40.097,2.37 C41.452,2.37 42.217,3.044 42.217,4.185 L42.217,7.877 L41.19,7.877 L41.19,7.117 L41.105,7.117 C40.756744,7.67214828 40.1366585,7.99690038 39.482,7.967 C39.0233073,8.01447304 38.5659403,7.86567505 38.2229861,7.55739737 C37.880032,7.2491197 37.6835058,6.81014033 37.682,6.349 L37.681,6.35 Z M41.155,5.887 L41.155,5.436 L39.835,5.52 C39.091,5.57 38.753,5.823 38.753,6.3 C38.753,6.786 39.175,7.069 39.755,7.069 C40.0986679,7.10394254 40.4417932,6.99783149 40.7057401,6.77498487 C40.969687,6.55213826 41.1318264,6.23166154 41.155,5.887 L41.155,5.887 Z M43.618,5.173 C43.618,3.466 44.496,2.384 45.861,2.384 C46.5504089,2.35204944 47.1961535,2.72149174 47.518,3.332 L47.598,3.332 L47.598,0.364 L48.664,0.364 L48.664,7.877 L47.642,7.877 L47.642,7.024 L47.558,7.024 C47.211,7.629 46.558,7.992 45.861,7.966 C44.486,7.966 43.618,6.885 43.618,5.173 L43.618,5.173 Z M44.719,5.173 C44.719,6.319 45.259,7.009 46.163,7.009 C47.062,7.009 47.617,6.309 47.617,5.178 C47.617,4.052 47.057,3.342 46.163,3.342 C45.265,3.342 44.719,4.036 44.719,5.173 Z M53.076,5.173 C52.981811,4.20364333 53.4458159,3.264806 54.2730974,2.75087098 C55.1003789,2.23693595 56.1476211,2.23693595 56.9749026,2.75087098 C57.8021841,3.264806 58.266189,4.20364333 58.172,5.173 C58.266189,6.14235667 57.8021841,7.081194 56.9749026,7.59512902 C56.1476211,8.10906405 55.1003789,8.10906405 54.2730974,7.59512902 C53.4458159,7.081194 52.981811,6.14235667 53.076,5.173 L53.076,5.173 Z M57.076,5.173 C57.076,4.002 56.549,3.317 55.626,3.317 C54.699,3.317 54.178,4.002 54.178,5.173 C54.178,6.353 54.699,7.033 55.626,7.033 C56.549,7.033 57.076,6.349 57.076,5.173 L57.076,5.173 Z M59.603,2.474 L60.63,2.474 L60.63,3.332 L60.71,3.332 C60.9870608,2.70014494 61.6343072,2.31348346 62.322,2.369 C62.8546269,2.32885881 63.3765916,2.53318631 63.7404189,2.92425202 C64.1042463,3.31531774 64.2704238,3.85065124 64.192,4.379 L64.192,7.877 L63.126,7.877 L63.126,4.647 C63.126,3.779 62.749,3.347 61.96,3.347 C61.5987175,3.33038324 61.2481854,3.47232513 61.0002534,3.73563276 C60.7523214,3.99894039 60.6317016,4.35736905 60.67,4.717 L60.67,7.877 L59.603,7.877 L59.603,2.474 L59.603,2.474 Z M70.218,1.128 L70.218,2.498 L71.388,2.498 L71.388,3.397 L70.218,3.397 L70.218,6.175 C70.218,6.741 70.451,6.989 70.982,6.989 C71.118,6.989 71.254,6.98 71.389,6.964 L71.389,7.853 C71.1975036,7.88708961 71.0034982,7.90515219 70.809,7.907 C69.623,7.907 69.151,7.49 69.151,6.448 L69.151,3.397 L68.293,3.397 L68.293,2.498 L69.151,2.498 L69.151,1.128 L70.218,1.128 L70.218,1.128 Z M72.846,0.364 L73.903,0.364 L73.903,3.342 L73.987,3.342 C74.277,2.705 74.937,2.318 75.635,2.374 C76.1645134,2.34542207 76.6791963,2.55442015 77.0388774,2.94407469 C77.3985585,3.33372923 77.56578,3.86346089 77.495,4.389 L77.495,7.877 L76.428,7.877 L76.428,4.652 C76.428,3.789 76.026,3.352 75.273,3.352 C74.9018746,3.32130985 74.5361413,3.45609644 74.2736894,3.72028382 C74.0112376,3.98447121 73.8788645,4.35108494 73.912,4.722 L73.912,7.877 L72.846,7.877 L72.846,0.364 L72.846,0.364 Z M83.713,6.418 C83.4142041,7.43687096 82.4286893,8.09556545 81.373,7.982 C80.6520906,8.00146489 79.9591127,7.70283941 79.4781657,7.16545765 C78.9972186,6.6280759 78.7769949,5.90634389 78.876,5.192 C78.7800304,4.47607186 78.9994273,3.75372638 79.4773504,3.21210583 C79.9552734,2.67048528 80.644694,2.36288617 81.367,2.369 C82.871,2.369 83.778,3.397 83.778,5.093 L83.778,5.466 L79.962,5.466 L79.962,5.526 C79.9284393,5.92698518 80.065613,6.32352002 80.3397754,6.61805423 C80.6139378,6.91258844 80.9996413,7.0777834 81.402,7.073 C81.9235312,7.13547306 82.4311407,6.87673046 82.687,6.418 L83.713,6.418 Z M79.963,4.677 L82.692,4.677 C82.7191663,4.31027995 82.5902329,3.94913588 82.3369626,3.68253554 C82.0836923,3.4159352 81.7296304,3.26866321 81.362,3.277 C80.98922,3.27211223 80.6302776,3.41804173 80.3666596,3.68165965 C80.1030417,3.94527757 79.9571122,4.30422 79.962,4.677 L79.963,4.677 Z" id="Shape"></path>
            </g>
        </g>
    </g>
</svg>