<svg width="44" height="44" viewBox="0 0 44 44" fill="none" xmlns="http://www.w3.org/2000/svg">
<path fill-rule="evenodd" clip-rule="evenodd" d="M33 16.5V11.5C33 10.6716 32.3284 10 31.5 10C30.6716 10 30 10.6716 30 11.5V16.5C30 17.3284 30.6716 18 31.5 18C32.3284 18 33 17.3284 33 16.5ZM31.5 8C29.567 8 28 9.567 28 11.5V16.5C28 18.433 29.567 20 31.5 20C33.433 20 35 18.433 35 16.5V11.5C35 9.567 33.433 8 31.5 8Z" fill="#333333"/>
<path fill-rule="evenodd" clip-rule="evenodd" d="M14 16.5V11.5C14 10.6716 13.3284 10 12.5 10C11.6716 10 11 10.6716 11 11.5V16.5C11 17.3284 11.6716 18 12.5 18C13.3284 18 14 17.3284 14 16.5ZM12.5 8C10.567 8 9 9.567 9 11.5V16.5C9 18.433 10.567 20 12.5 20C14.433 20 16 18.433 16 16.5V11.5C16 9.567 14.433 8 12.5 8Z" fill="#333333"/>
<path fill-rule="evenodd" clip-rule="evenodd" d="M33 32.5V27.5C33 26.6716 32.3284 26 31.5 26C30.6716 26 30 26.6716 30 27.5V32.5C30 33.3284 30.6716 34 31.5 34C32.3284 34 33 33.3284 33 32.5ZM31.5 24C29.567 24 28 25.567 28 27.5V32.5C28 34.433 29.567 36 31.5 36C33.433 36 35 34.433 35 32.5V27.5C35 25.567 33.433 24 31.5 24Z" fill="#333333"/>
<path fill-rule="evenodd" clip-rule="evenodd" d="M14 32.5V27.5C14 26.6716 13.3284 26 12.5 26C11.6716 26 11 26.6716 11 27.5V32.5C11 33.3284 11.6716 34 12.5 34C13.3284 34 14 33.3284 14 32.5ZM12.5 24C10.567 24 9 25.567 9 27.5V32.5C9 34.433 10.567 36 12.5 36C14.433 36 16 34.433 16 32.5V27.5C16 25.567 14.433 24 12.5 24Z" fill="#333333"/>
<rect x="18" y="29" width="8" height="2" rx="1" fill="#333333"/>
<rect x="18" y="13" width="8" height="2" rx="1" fill="#333333"/>
<rect x="21" y="17" width="2" height="10" rx="1" fill="#333333"/>
</svg>
