<svg width="44" height="44" viewBox="0 0 44 44" fill="none" xmlns="http://www.w3.org/2000/svg">
<path fill-rule="evenodd" clip-rule="evenodd" d="M28.364 15.7071C27.9734 15.3166 27.3403 15.3166 26.9498 15.7071L23.3411 19.3157C22.9375 19.1137 22.482 19 22 19C20.3431 19 19 20.3431 19 22C19 23.6568 20.3431 25 22 25C23.6569 25 25 23.6568 25 22C25 21.5558 24.9035 21.1342 24.7303 20.755L28.364 17.1213C28.7545 16.7308 28.7545 16.0976 28.364 15.7071ZM23 22C23 22.5523 22.5523 23 22 23C21.4477 23 21 22.5523 21 22C21 21.4477 21.4477 21 22 21C22.5523 21 23 21.4477 23 22Z" fill="#333333"/>
<path d="M12.5135 33.4969C12.8787 33.1317 13.4589 33.1056 13.8794 33.4055C16.1695 35.039 18.9726 36 22 36C29.732 36 36 29.732 36 22C36 14.268 29.732 8 22 8C18.9676 8 16.1603 8.96411 13.8681 10.6025C13.4476 10.9031 12.8669 10.8773 12.5014 10.5118C12.0839 10.0942 12.1125 9.4061 12.5898 9.05844C15.2306 7.13488 18.4828 6 22 6C30.8366 6 38 13.1634 38 22C38 30.8366 30.8366 38 22 38C18.4885 38 15.2411 36.8688 12.6026 34.9509C12.1246 34.6034 12.0956 33.9147 12.5135 33.4969Z" fill="#333333"/>
<path d="M6.888 30V21.84H12.168V23.28H8.544V25.188H11.448V26.604H8.544V28.56H12.168V30H6.888Z" fill="#333333"/>
</svg>
