<?xml version="1.0" encoding="UTF-8"?>
<svg width="2500px" height="741px" viewBox="0 0 2500 741" version="1.1" xmlns="http://www.w3.org/2000/svg" xmlns:xlink="http://www.w3.org/1999/xlink">
    <!-- Generator: Sketch 59.1 (86144) - https://sketch.com -->
    <title>google-play-badge@3x</title>
    <desc>Created with Sketch.</desc>
    <defs>
        <linearGradient x1="61.024%" y1="4.84%" x2="26.11536%" y2="71.968%" id="linearGradient-1">
            <stop stop-color="#00A0FF" offset="0%"></stop>
            <stop stop-color="#00A1FF" offset="0.7%"></stop>
            <stop stop-color="#00BEFF" offset="26%"></stop>
            <stop stop-color="#00D2FF" offset="51.2%"></stop>
            <stop stop-color="#00DFFF" offset="76%"></stop>
            <stop stop-color="#00E3FF" offset="100%"></stop>
        </linearGradient>
        <linearGradient x1="107.724138%" y1="49.4235294%" x2="-130.669951%" y2="49.4235294%" id="linearGradient-2">
            <stop stop-color="#FFE000" offset="0%"></stop>
            <stop stop-color="#FFBD00" offset="40.9%"></stop>
            <stop stop-color="#FFA500" offset="77.5%"></stop>
            <stop stop-color="#FF9C00" offset="100%"></stop>
        </linearGradient>
        <linearGradient x1="86.3892216%" y1="30.8292932%" x2="-49.8862275%" y2="136.002473%" id="linearGradient-3">
            <stop stop-color="#FF3A44" offset="0%"></stop>
            <stop stop-color="#C31162" offset="100%"></stop>
        </linearGradient>
        <linearGradient x1="-18.5808383%" y1="-11.6832997%" x2="42.2754491%" y2="35.0657182%" id="linearGradient-4">
            <stop stop-color="#32A071" offset="0%"></stop>
            <stop stop-color="#2DA771" offset="6.9%"></stop>
            <stop stop-color="#15CF74" offset="47.6%"></stop>
            <stop stop-color="#06E775" offset="80.1%"></stop>
            <stop stop-color="#00F076" offset="100%"></stop>
        </linearGradient>
    </defs>
    <g id="Page-1" stroke="none" stroke-width="1" fill="none" fill-rule="evenodd">
        <g id="google-play-badge" fill-rule="nonzero">
            <path d="M2407.40741,740.740741 L92.5925926,740.740741 C40.7407407,740.740741 0,700 0,648.148148 L0,92.5925926 C0,40.7407407 40.7407407,0 92.5925926,0 L2407.40741,0 C2459.25926,0 2500,40.7407407 2500,92.5925926 L2500,648.148148 C2500,700 2459.25926,740.740741 2407.40741,740.740741 Z" id="Path" fill="#000000"></path>
            <path d="M877.777778,188.888889 C877.777778,203.703704 874.074074,216.666667 864.814815,225.925926 C853.703704,237.037037 840.740741,242.592593 824.074074,242.592593 C807.407407,242.592593 794.444444,237.037037 783.333333,225.925926 C772.222222,214.814815 766.666667,201.851852 766.666667,185.185185 C766.666667,168.518519 772.222222,155.555556 783.333333,144.444444 C794.444444,133.333333 807.407407,127.777778 824.074074,127.777778 C831.481481,127.777778 838.888889,129.62963 846.296296,133.333333 C853.703704,137.037037 859.259259,140.740741 862.962963,146.296296 L853.703704,155.555556 C846.296296,146.296296 837.037037,142.592593 824.074074,142.592593 C812.962963,142.592593 801.851852,146.296296 794.444444,155.555556 C785.185185,162.962963 781.481481,174.074074 781.481481,187.037037 C781.481481,200 785.185185,211.111111 794.444444,218.518519 C803.703704,225.925926 812.962963,231.481481 824.074074,231.481481 C837.037037,231.481481 846.296296,227.777778 855.555556,218.518519 C861.111111,212.962963 864.814815,205.555556 864.814815,196.296296 L824.074074,196.296296 L824.074074,181.481481 L877.777778,181.481481 L877.777778,188.888889 L877.777778,188.888889 Z M962.962963,142.592593 L912.962963,142.592593 L912.962963,177.777778 L959.259259,177.777778 L959.259259,190.740741 L912.962963,190.740741 L912.962963,225.925926 L962.962963,225.925926 L962.962963,240.740741 L898.148148,240.740741 L898.148148,129.62963 L962.962963,129.62963 L962.962963,142.592593 Z M1024.07407,240.740741 L1009.25926,240.740741 L1009.25926,142.592593 L977.777778,142.592593 L977.777778,129.62963 L1055.55556,129.62963 L1055.55556,142.592593 L1024.07407,142.592593 L1024.07407,240.740741 Z M1109.25926,240.740741 L1109.25926,129.62963 L1124.07407,129.62963 L1124.07407,240.740741 L1109.25926,240.740741 Z M1187.03704,240.740741 L1172.22222,240.740741 L1172.22222,142.592593 L1140.74074,142.592593 L1140.74074,129.62963 L1216.66667,129.62963 L1216.66667,142.592593 L1185.18519,142.592593 L1185.18519,240.740741 L1187.03704,240.740741 Z M1362.96296,225.925926 C1351.85185,237.037037 1338.88889,242.592593 1322.22222,242.592593 C1305.55556,242.592593 1292.59259,237.037037 1281.48148,225.925926 C1270.37037,214.814815 1264.81481,201.851852 1264.81481,185.185185 C1264.81481,168.518519 1270.37037,155.555556 1281.48148,144.444444 C1292.59259,133.333333 1305.55556,127.777778 1322.22222,127.777778 C1338.88889,127.777778 1351.85185,133.333333 1362.96296,144.444444 C1374.07407,155.555556 1379.62963,168.518519 1379.62963,185.185185 C1379.62963,201.851852 1374.07407,214.814815 1362.96296,225.925926 Z M1292.59259,216.666667 C1300,224.074074 1311.11111,229.62963 1322.22222,229.62963 C1333.33333,229.62963 1344.44444,225.925926 1351.85185,216.666667 C1359.25926,209.259259 1364.81481,198.148148 1364.81481,185.185185 C1364.81481,172.222222 1361.11111,161.111111 1351.85185,153.703704 C1344.44444,146.296296 1333.33333,140.740741 1322.22222,140.740741 C1311.11111,140.740741 1300,144.444444 1292.59259,153.703704 C1285.18519,161.111111 1279.62963,172.222222 1279.62963,185.185185 C1279.62963,198.148148 1283.33333,209.259259 1292.59259,216.666667 Z M1400,240.740741 L1400,129.62963 L1416.66667,129.62963 L1470.37037,216.666667 L1470.37037,129.62963 L1485.18519,129.62963 L1485.18519,240.740741 L1470.37037,240.740741 L1412.96296,150 L1412.96296,240.740741 L1400,240.740741 L1400,240.740741 Z" id="Shape" stroke="#FFFFFF" stroke-width="3.7037037" fill="#FFFFFF"></path>
            <path d="M1261.11111,403.703704 C1216.66667,403.703704 1181.48148,437.037037 1181.48148,483.333333 C1181.48148,527.777778 1216.66667,562.962963 1261.11111,562.962963 C1305.55556,562.962963 1340.74074,529.62963 1340.74074,483.333333 C1340.74074,435.185185 1305.55556,403.703704 1261.11111,403.703704 Z M1261.11111,529.62963 C1237.03704,529.62963 1216.66667,509.259259 1216.66667,481.481481 C1216.66667,453.703704 1237.03704,433.333333 1261.11111,433.333333 C1285.18519,433.333333 1305.55556,451.851852 1305.55556,481.481481 C1305.55556,509.259259 1285.18519,529.62963 1261.11111,529.62963 Z M1088.88889,403.703704 C1044.44444,403.703704 1009.25926,437.037037 1009.25926,483.333333 C1009.25926,527.777778 1044.44444,562.962963 1088.88889,562.962963 C1133.33333,562.962963 1168.51852,529.62963 1168.51852,483.333333 C1168.51852,435.185185 1133.33333,403.703704 1088.88889,403.703704 Z M1088.88889,529.62963 C1064.81481,529.62963 1044.44444,509.259259 1044.44444,481.481481 C1044.44444,453.703704 1064.81481,433.333333 1088.88889,433.333333 C1112.96296,433.333333 1133.33333,451.851852 1133.33333,481.481481 C1133.33333,509.259259 1112.96296,529.62963 1088.88889,529.62963 Z M883.333333,427.777778 L883.333333,461.111111 L962.962963,461.111111 C961.111111,479.62963 953.703704,494.444444 944.444444,503.703704 C933.333333,514.814815 914.814815,527.777778 883.333333,527.777778 C833.333333,527.777778 796.296296,488.888889 796.296296,438.888889 C796.296296,388.888889 835.185185,350 883.333333,350 C909.259259,350 929.62963,361.111111 944.444444,374.074074 L968.518519,350 C948.148148,331.481481 922.222222,316.666667 885.185185,316.666667 C818.518519,316.666667 761.111111,372.222222 761.111111,438.888889 C761.111111,505.555556 818.518519,561.111111 885.185185,561.111111 C922.222222,561.111111 948.148148,550 970.37037,525.925926 C992.592593,503.703704 1000,472.222222 1000,448.148148 C1000,440.740741 1000,433.333333 998.148148,427.777778 L883.333333,427.777778 L883.333333,427.777778 Z M1724.07407,453.703704 C1716.66667,435.185185 1698.14815,403.703704 1657.40741,403.703704 C1616.66667,403.703704 1583.33333,435.185185 1583.33333,483.333333 C1583.33333,527.777778 1616.66667,562.962963 1661.11111,562.962963 C1696.2963,562.962963 1718.51852,540.740741 1725.92593,527.777778 L1700,509.259259 C1690.74074,522.222222 1679.62963,531.481481 1661.11111,531.481481 C1642.59259,531.481481 1631.48148,524.074074 1622.22222,507.407407 L1727.77778,462.962963 L1724.07407,453.703704 L1724.07407,453.703704 Z M1616.66667,479.62963 C1616.66667,450 1640.74074,433.333333 1657.40741,433.333333 C1670.37037,433.333333 1683.33333,440.740741 1687.03704,450 L1616.66667,479.62963 Z M1529.62963,555.555556 L1564.81481,555.555556 L1564.81481,324.074074 L1529.62963,324.074074 L1529.62963,555.555556 Z M1474.07407,420.37037 C1464.81481,411.111111 1450,401.851852 1431.48148,401.851852 C1392.59259,401.851852 1355.55556,437.037037 1355.55556,481.481481 C1355.55556,525.925926 1390.74074,559.259259 1431.48148,559.259259 C1450,559.259259 1464.81481,550 1472.22222,540.740741 L1474.07407,540.740741 L1474.07407,551.851852 C1474.07407,581.481481 1457.40741,598.148148 1431.48148,598.148148 C1411.11111,598.148148 1396.2963,583.333333 1392.59259,570.37037 L1362.96296,583.333333 C1372.22222,603.703704 1394.44444,629.62963 1433.33333,629.62963 C1474.07407,629.62963 1507.40741,605.555556 1507.40741,548.148148 L1507.40741,407.407407 L1474.07407,407.407407 L1474.07407,420.37037 L1474.07407,420.37037 Z M1433.33333,529.62963 C1409.25926,529.62963 1388.88889,509.259259 1388.88889,481.481481 C1388.88889,453.703704 1409.25926,433.333333 1433.33333,433.333333 C1457.40741,433.333333 1475.92593,453.703704 1475.92593,481.481481 C1475.92593,509.259259 1457.40741,529.62963 1433.33333,529.62963 Z M1885.18519,324.074074 L1801.85185,324.074074 L1801.85185,555.555556 L1837.03704,555.555556 L1837.03704,468.518519 L1885.18519,468.518519 C1924.07407,468.518519 1961.11111,440.740741 1961.11111,396.296296 C1961.11111,351.851852 1924.07407,324.074074 1885.18519,324.074074 L1885.18519,324.074074 Z M1887.03704,435.185185 L1837.03704,435.185185 L1837.03704,355.555556 L1887.03704,355.555556 C1912.96296,355.555556 1927.77778,377.777778 1927.77778,394.444444 C1925.92593,414.814815 1911.11111,435.185185 1887.03704,435.185185 Z M2100,401.851852 C2074.07407,401.851852 2048.14815,412.962963 2038.88889,437.037037 L2070.37037,450 C2077.77778,437.037037 2088.88889,433.333333 2101.85185,433.333333 C2120.37037,433.333333 2137.03704,444.444444 2138.88889,462.962963 L2138.88889,464.814815 C2133.33333,461.111111 2118.51852,455.555556 2103.7037,455.555556 C2070.37037,455.555556 2037.03704,474.074074 2037.03704,507.407407 C2037.03704,538.888889 2064.81481,559.259259 2094.44444,559.259259 C2118.51852,559.259259 2129.62963,548.148148 2138.88889,537.037037 L2140.74074,537.037037 L2140.74074,555.555556 L2174.07407,555.555556 L2174.07407,466.666667 C2170.37037,425.925926 2138.88889,401.851852 2100,401.851852 L2100,401.851852 Z M2096.2963,529.62963 C2085.18519,529.62963 2068.51852,524.074074 2068.51852,509.259259 C2068.51852,490.740741 2088.88889,485.185185 2105.55556,485.185185 C2120.37037,485.185185 2127.77778,488.888889 2137.03704,492.592593 C2133.33333,514.814815 2114.81481,529.62963 2096.2963,529.62963 L2096.2963,529.62963 Z M2290.74074,407.407407 L2251.85185,507.407407 L2250,507.407407 L2209.25926,407.407407 L2172.22222,407.407407 L2233.33333,548.148148 L2198.14815,625.925926 L2233.33333,625.925926 L2327.77778,407.407407 L2290.74074,407.407407 L2290.74074,407.407407 Z M1979.62963,555.555556 L2014.81481,555.555556 L2014.81481,324.074074 L1979.62963,324.074074 L1979.62963,555.555556 Z" id="Shape" fill="#FFFFFF"></path>
            <g id="Group" transform="translate(185.185185, 131.629630)">
                <path d="M7.40740741,7.25925926 C1.85185185,12.8148148 0,22.0740741 0,33.1851852 L0,442.444444 C0,453.555556 3.7037037,462.814815 9.25925926,468.37037 L11.1111111,470.222222 L240.740741,240.592593 L240.740741,236.888889 L7.40740741,7.25925926 Z" id="Path" fill="url(#linearGradient-1)"></path>
                <path d="M314.814815,318.37037 L238.888889,242.444444 L238.888889,236.888889 L314.814815,160.962963 L316.666667,162.814815 L407.407407,214.666667 C433.333333,229.481481 433.333333,253.555556 407.407407,268.37037 L314.814815,318.37037 L314.814815,318.37037 Z" id="Path" fill="url(#linearGradient-2)"></path>
                <path d="M316.666667,316.518519 L238.888889,238.740741 L7.40740741,470.222222 C16.6666667,479.481481 29.6296296,479.481481 46.2962963,472.074074 L316.666667,316.518519" id="Path" fill="url(#linearGradient-3)"></path>
                <path d="M316.666667,160.962963 L46.2962963,7.25925926 C29.6296296,-2 16.6666667,-0.148148148 7.40740741,9.11111111 L238.888889,238.740741 L316.666667,160.962963 L316.666667,160.962963 Z" id="Path" fill="url(#linearGradient-4)"></path>
                <path d="M314.814815,314.666667 L46.2962963,466.518519 C31.4814815,475.777778 18.5185185,473.925926 9.25925926,466.518519 L7.40740741,468.37037 L9.25925926,470.222222 C18.5185185,477.62963 31.4814815,479.481481 46.2962963,470.222222 L314.814815,314.666667 Z" id="Path" fill="#000000" opacity="0.2"></path>
                <path d="M7.40740741,466.518519 C1.85185185,460.962963 0,451.703704 0,440.592593 L0,442.444444 C0,453.555556 3.7037037,462.814815 9.25925926,468.37037 L9.25925926,466.518519 L7.40740741,466.518519 Z M407.407407,262.814815 L314.814815,314.666667 L316.666667,316.518519 L407.407407,264.666667 C420.37037,257.259259 425.925926,248 425.925926,238.740741 C425.925926,248 418.518519,255.407407 407.407407,262.814815 L407.407407,262.814815 Z" id="Shape" fill="#000000" opacity="0.12"></path>
                <path d="M46.2962963,9.11111111 L407.407407,214.666667 C418.518519,222.074074 425.925926,229.481481 425.925926,238.740741 C425.925926,229.481481 420.37037,220.222222 407.407407,212.814815 L46.2962963,7.25925926 C20.3703704,-7.55555556 0,3.55555556 0,33.1851852 L0,35.037037 C0,7.25925926 20.3703704,-5.7037037 46.2962963,9.11111111 Z" id="Path" fill="#FFFFFF" opacity="0.25"></path>
            </g>
        </g>
    </g>
</svg>