<svg xmlns="http://www.w3.org/2000/svg" width="19" height="15" viewBox="0 0 19 15" fill="none">
<path d="M15.46 0.32666H3.20996C2.51377 0.32666 1.84609 0.603222 1.35381 1.0955C0.861523 1.58779 0.584961 2.25547 0.584961 2.95166V11.7017C0.584961 12.3979 0.861523 13.0655 1.35381 13.5578C1.84609 14.0501 2.51377 14.3267 3.20996 14.3267H15.46C16.1562 14.3267 16.8238 14.0501 17.3161 13.5578C17.8084 13.0655 18.085 12.3979 18.085 11.7017V2.95166C18.085 2.25547 17.8084 1.58779 17.3161 1.0955C16.8238 0.603222 16.1562 0.32666 15.46 0.32666ZM3.20996 12.5767C2.9779 12.5767 2.75534 12.4845 2.59124 12.3204C2.42715 12.1563 2.33496 11.9337 2.33496 11.7017V9.58416L5.22246 6.70541C5.38602 6.54509 5.60593 6.45529 5.83496 6.45529C6.064 6.45529 6.2839 6.54509 6.44746 6.70541L12.3187 12.5767H3.20996ZM16.335 11.7017C16.335 11.9337 16.2428 12.1563 16.0787 12.3204C15.9146 12.4845 15.692 12.5767 15.46 12.5767H14.7862L11.4525 9.22541L12.2225 8.45541C12.386 8.29509 12.6059 8.20529 12.835 8.20529C13.064 8.20529 13.2839 8.29509 13.4475 8.45541L16.335 11.3342V11.7017ZM16.335 8.86666L14.69 7.23041C14.1913 6.75129 13.5265 6.48371 12.835 6.48371C12.1434 6.48371 11.4787 6.75129 10.98 7.23041L10.21 8.00041L7.68996 5.48041C7.19126 5.00129 6.52652 4.73371 5.83496 4.73371C5.1434 4.73371 4.47866 5.00129 3.97996 5.48041L2.33496 7.11666V2.95166C2.33496 2.7196 2.42715 2.49704 2.59124 2.33294C2.75534 2.16885 2.9779 2.07666 3.20996 2.07666H15.46C15.692 2.07666 15.9146 2.16885 16.0787 2.33294C16.2428 2.49704 16.335 2.7196 16.335 2.95166V8.86666Z" fill="white"/>
</svg>
