<svg width="44" height="44" viewBox="0 0 44 44" fill="none" xmlns="http://www.w3.org/2000/svg">
<g clip-path="url(#clip0_146_15535)">
<path fill-rule="evenodd" clip-rule="evenodd" d="M28.322 17.4884C28.8597 16.5667 29.8464 16 30.9134 16H31.1132C33.1063 16 34.5453 17.9077 33.9978 19.8242L30.742 31.2194C30.5707 31.8188 29.9187 32.1386 29.3398 31.9071C27.2188 31.0587 24.8255 32.2027 24.1536 34.3861L23.7368 35.7407C23.5834 36.2395 23.0913 36.5538 22.5742 36.4833L12.7515 35.1438C11.7074 35.0014 10.8145 34.3217 10.3994 33.3531L9.24737 30.6649C8.32543 28.5138 10.1122 26.1823 12.4291 26.5133L21.5738 27.8197C21.9765 27.8773 22.374 27.6851 22.579 27.3336L28.322 17.4884ZM30.9134 18C30.5577 18 30.2288 18.1889 30.0496 18.4961L24.3065 28.3414C23.6916 29.3956 22.4992 29.9722 21.2909 29.7996L12.1462 28.4932C11.3739 28.3829 10.7783 29.16 11.0857 29.8771L12.2377 32.5653C12.3761 32.8881 12.6737 33.1147 13.0218 33.1622L22.0585 34.3945L22.2421 33.798C23.1532 30.837 26.1585 29.1404 29.0823 29.7482L32.0747 19.2747C32.2572 18.6359 31.7776 18 31.1132 18H30.9134Z" fill="#333333"/>
<path fill-rule="evenodd" clip-rule="evenodd" d="M33.1107 8.87587C32.7372 7.75562 31.6889 7 30.508 7C28.9929 7 27.7646 8.22827 27.7646 9.74342V12C27.7646 13.6569 29.1078 15 30.7646 15H30.9898C33.0374 15 34.4833 12.9939 33.8358 11.0513L33.1107 8.87587ZM30.508 9C30.828 9 31.1121 9.20476 31.2133 9.50833L31.9384 11.6838C32.1543 12.3313 31.6723 13 30.9898 13H30.7646C30.2123 13 29.7646 12.5523 29.7646 12V9.74342C29.7646 9.33284 30.0975 9 30.508 9Z" fill="#333333"/>
</g>
<defs>
<clipPath id="clip0_146_15535">
<rect width="44" height="44" fill="white"/>
</clipPath>
</defs>
</svg>
